<?xml version="1.0" encoding="utf-8"?>
<!-- Generator: Adobe Illustrator 22.1.0, SVG Export Plug-In . SVG Version: 6.00 Build 0)  -->
<svg version="1.1" id="Layer_1" xmlns="http://www.w3.org/2000/svg" xmlns:xlink="http://www.w3.org/1999/xlink" x="0px" y="0px"
	 viewBox="0 0 512 512" style="enable-background:new 0 0 512 512;" xml:space="preserve">
<g>
	<path d="M139.5,456.4c-0.3-14.1,11.5-25.6,25.6-25.6h54.7v-5H109.2c-14.1,0-25.9-11.5-25.6-25.6c0.3-13.6,11.4-24.6,25.1-24.6
		h111.1v-5H84.7c-14.1,0-25.9-11.5-25.6-25.6c0.3-13.6,11.4-24.6,25.1-24.6h135.6v-5h-110c-14.1,0-25.9-11.5-25.6-25.6
		C84.5,276,95.6,265,109.3,265h148.2l-27.3-19.9c-11.2-8.2-13.7-23.9-5.5-35.1c8.2-11.2,23.9-13.7,35.1-5.5l108.4,78.9
		c7.8,5.7,12.4,14.7,12.4,24.4v124c0,14-9.6,26.1-23.2,29.3l-70.7,16.6c-9,2.1-18.3,3.2-27.6,3.2h-94.4
		C150.9,481,139.7,470,139.5,456.4L139.5,456.4z M203.9,258h32l-9.8-7.2c-16.3-11.9-17.9-35.9-2.8-49.7l-11.4-14.7
		c-8.7-11.1-25-13.3-35.9-4.5c-10.6,8.6-12.4,24.1-4,34.9L203.9,258L203.9,258z M452.9,256.2l-4.4-134
		c-0.5-13.9-12.1-24.7-25.9-24.3c-13.9,0.5-24.7,12.1-24.3,25.9l1.1,33.8l-91-116.9c-8.4-10.8-23.9-12.9-34.9-4.7
		c-11.3,8.4-13.1,24.8-4.5,35.9l67.6,86.8l-4,3.1l-83.3-107c-8.4-10.8-23.9-12.9-34.9-4.7c-11.3,8.4-13.1,24.8-4.5,35.9l83,106.6
		l-4,3.1l-68.3-87.7c-8.4-10.8-23.9-12.9-34.9-4.7c-11.3,8.4-13.1,24.8-4.5,35.9l45.7,58.8c11-7.3,25.5-7.3,36.6,0.8l108.4,78.9
		c9.6,7,15.3,18.2,15.3,30.1v14.9l53.7-41.8C448.9,275,453.2,265.8,452.9,256.2L452.9,256.2z"/>
</g>
</svg>
